<svg width="16" height="16" viewBox="0 0 16 16" fill="none" xmlns="http://www.w3.org/2000/svg">
<g clip-path="url(#clip0_124_9)">
<path d="M8.35549 0.459016C7.82143 0.675891 7.39999 0.999266 7.14455 1.3838L6.68165 0.521516C6.39987 2.06352 6.2904 3.49292 7.68165 3.94536C7.34621 5.09973 7.14455 6.25473 7.03518 7.40827L6.39258 6.21002C6.30358 5.75023 6.09202 5.2507 5.85062 4.74127L5.30762 7.05764C5.08218 6.35552 4.79212 5.66148 4.41793 4.98045C5.1823 3.62992 4.92212 2.7752 3.44627 2.50295C3.43018 2.59795 3.42877 2.79495 3.42877 2.79495L2.80765 2.52152L2.7344 3.14158L2.4424 2.99611C2.27262 4.31655 2.43865 5.33817 3.89943 5.24905C4.01386 5.45666 4.12136 5.66803 4.22174 5.8828L0.913147 4.88477C1.89012 6.29873 2.91855 7.47102 4.42971 6.35645C4.77299 7.18945 5.00737 8.0422 5.1719 8.9102L3.14752 7.65433C3.54977 8.78145 4.02887 9.75702 5.23927 9.29298C5.27793 9.52567 5.31133 9.75942 5.34177 9.99417H5.93165C5.84549 9.30823 5.72749 8.6248 5.55958 7.9473C5.81608 7.81933 6.00802 7.67064 6.14552 7.50392C6.26093 7.85383 6.50833 8.11777 6.97171 8.24123C6.93743 8.82592 6.92465 9.41042 6.92677 9.99411H7.51077C7.51033 9.86692 7.51068 9.74036 7.51171 9.61327C8.82071 9.40036 8.74546 8.28583 8.52443 7.07614L7.52546 8.93942C7.54937 8.1988 7.60333 7.46048 7.70024 6.72361C9.34133 6.8812 9.61099 5.51164 9.7354 3.98048L7.80383 6.03808C7.91227 5.39548 8.05571 4.75402 8.24133 4.1142C9.41458 4.25783 10.644 2.99655 10.5938 1.9267L10.2051 2.16795C10.1722 1.7942 9.99658 1.37077 9.66999 0.896391C9.43452 1.0637 9.2324 1.2893 9.0499 1.53514L8.9219 0.969703L8.55665 1.4258C8.54665 1.09861 8.48883 0.776766 8.35549 0.459016ZM14.0499 3.56058C13.8938 3.56083 13.7067 3.58745 13.4796 3.65139C13.0628 3.7687 12.6196 4.0342 12.7803 4.82717C12.0151 5.23739 11.3613 5.79973 10.835 6.48827H10.8291C10.83 6.48967 10.8311 6.49077 10.832 6.49217C10.807 6.52498 10.7822 6.55748 10.7578 6.5908L11.4785 4.20505C10.043 5.19702 8.8554 6.24145 10.0586 7.79098C9.75577 8.45648 9.54183 9.19536 9.4238 9.99411H10.6123C11.3789 9.76361 11.5373 8.85548 11.6181 7.8613L10.1133 9.46386C10.3247 8.50917 10.6891 7.67527 11.1885 6.98042C12.3362 8.29745 13.6004 7.44598 14.877 6.36136L11.6085 6.46386C12.0176 6.01748 12.4944 5.64517 13.0322 5.35448C13.3881 5.81511 13.9198 5.79736 14.3008 5.59861C15.0926 5.18561 14.8459 4.72861 15.4971 4.16405C14.8442 4.32855 14.8923 3.55911 14.0499 3.56052V3.56058ZM4.77927 10.5781L5.59277 15.4092H10.0801L10.9053 10.5781H4.77927Z" fill="#C4A36C"/>
</g>
<defs>
<clipPath id="clip0_124_9">
<rect width="16" height="16" fill="white"/>
</clipPath>
</defs>
</svg>
