<svg width="16" height="16" viewBox="0 0 16 16" fill="none" xmlns="http://www.w3.org/2000/svg">
<path d="M13.998 9.4815H14V11.273C13.949 11.2359 13.9004 11.1957 13.8545 11.1525C13.5255 10.821 12.984 10.522 12.383 10.516L12.3675 10.5165C12.3065 10.5162 12.2447 10.5188 12.182 10.5245C11.7735 10.5655 11.347 10.7495 10.9465 11.1525C10.264 11.84 9.6295 11.3235 9.4535 11.1525C8.8695 10.5635 7.614 10.0775 6.5465 11.1525C5.864 11.84 5.229 11.3235 5.054 11.1525C4.7245 10.8205 4.1825 10.522 3.5815 10.516C3.1145 10.5105 2.6115 10.6825 2.145 11.1525C2.0965 11.202 2.0485 11.232 2 11.2695V9.4815H2.002C2.005 9.356 2.052 9.232 2.1465 9.1365C2.7565 8.522 3.428 8.4185 4 8.552V3.5C4 3.36739 3.94732 3.24021 3.85355 3.14645C3.75979 3.05268 3.63261 3 3.5 3C3.36739 3 3.24021 3.05268 3.14645 3.14645C3.05268 3.24021 3 3.36739 3 3.5C3 3.63261 2.94732 3.75979 2.85355 3.85355C2.75979 3.94732 2.63261 4 2.5 4C2.36739 4 2.24021 3.94732 2.14645 3.85355C2.05268 3.75979 2 3.63261 2 3.5C2 2.6725 2.673 2 3.5 2C4.3275 2 5 2.6725 5 3.5V4.5H8.5V3.5C8.5 3.36739 8.44732 3.24021 8.35355 3.14645C8.25979 3.05268 8.13261 3 8 3C7.86739 3 7.74021 3.05268 7.64645 3.14645C7.55268 3.24021 7.5 3.36739 7.5 3.5C7.5 3.63261 7.44732 3.75979 7.35355 3.85355C7.25979 3.94732 7.13261 4 7 4C6.86739 4 6.74021 3.94732 6.64645 3.85355C6.55268 3.75979 6.5 3.63261 6.5 3.5C6.5 2.6725 7.173 2 8 2C8.8275 2 9.5 2.6725 9.5 3.5V9.177C9.628 9.2915 9.88 9.475 10.201 9.4815H10.2365C10.4535 9.4765 10.6965 9.3885 10.9465 9.1365C12.013 8.0625 13.2685 8.547 13.8535 9.1365C13.9485 9.232 13.995 9.356 13.998 9.4815ZM6.5465 9.1365C7.1925 8.486 7.907 8.409 8.5 8.579V8H5V9.0865C5.0175 9.1035 5.037 9.12 5.054 9.1365C5.161 9.2415 5.4425 9.4745 5.801 9.4815H5.8365C6.0535 9.4765 6.2965 9.3885 6.5465 9.1365ZM5 7H8.5V5.5H5V7ZM13.149 11.8535L13.153 11.856C13.198 11.901 13.517 12.2085 14 12.381V14H2V12.394C2.32041 12.284 2.61028 12.0998 2.846 11.8565L2.8535 11.851C3.0235 11.6775 3.1905 11.58 3.3485 11.5335C3.8225 11.396 4.2135 11.7205 4.3475 11.8535L4.354 11.858C4.404 11.907 4.7315 12.225 5.2295 12.394C5.9505 12.64 6.6695 12.4465 7.2535 11.851C7.9365 11.156 8.5715 11.6775 8.7465 11.851C8.7835 11.888 9.1195 12.221 9.6295 12.394C9.83383 12.4637 10.0367 12.4982 10.238 12.4975C10.745 12.4975 11.232 12.279 11.65 11.854L11.655 11.851C11.74 11.7643 11.824 11.6955 11.907 11.6445C12.487 11.2825 12.9925 11.6985 13.149 11.8535Z" fill="#C4A36C"/>
</svg>
