<svg width="16" height="16" viewBox="0 0 16 16" fill="none" xmlns="http://www.w3.org/2000/svg">
<g clip-path="url(#clip0_124_3)">
<path fill-rule="evenodd" clip-rule="evenodd" d="M14.75 8.5H13.75V9.5H14.75V8.5Z" fill="#C4A36C"/>
<path fill-rule="evenodd" clip-rule="evenodd" d="M14.755 11.491V10.1105C15.1007 10.0483 15.4132 9.86597 15.6375 9.59573C15.8619 9.32549 15.9835 8.9847 15.981 8.6335C15.9799 8.43731 15.9395 8.24333 15.8622 8.063C15.7849 7.88267 15.6723 7.71963 15.531 7.5835L10.301 2.43C10.0201 2.15399 9.64185 1.99954 9.24801 2L9.24551 2.0025C8.8532 2.00189 8.47627 2.155 8.19551 2.429L7.56201 3.05C7.45344 2.88152 7.30441 2.74292 7.12851 2.64684C6.9526 2.55077 6.75544 2.50029 6.55501 2.5H5.46001C5.14015 2.5008 4.83366 2.62842 4.60776 2.85487C4.38187 3.08133 4.25501 3.38814 4.25501 3.708V6.308L2.94351 7.6C2.74748 7.79338 2.60891 8.03732 2.54321 8.30473C2.4775 8.57213 2.48723 8.85252 2.57132 9.11473C2.6554 9.37693 2.81055 9.61069 3.01952 9.79001C3.22848 9.96933 3.48308 10.0872 3.75501 10.1305V14H3.25501V10.5085C2.80839 10.3314 2.44104 9.99849 2.22089 9.57143C2.00074 9.14438 1.9427 8.65204 2.05751 8.1855C2.14587 7.82844 2.33099 7.50267 2.59251 7.244L3.75501 6.099V5C2.84801 5.0165 2.11651 5.771 2.11651 6.6975H2.07601C1.24151 6.6975 0.559511 7.3855 0.559511 8.2395V8.5555C0.559511 8.871 0.656511 9.166 0.814511 9.4145C0.565497 9.56188 0.359333 9.77179 0.216462 10.0234C0.0735897 10.275 -0.00102693 10.5596 1.06755e-05 10.849C1.06755e-05 11.76 0.727511 12.5 1.62301 12.5H2.50001V14C1.95001 14 1.50001 14.45 1.50001 15H15.5C15.4999 14.8568 15.4691 14.7153 15.4096 14.585C15.35 14.4548 15.2632 14.3388 15.155 14.245C15.2543 14.0923 15.3325 13.929 15.3895 13.755C15.515 13.384 15.5335 12.9851 15.4427 12.604C15.352 12.223 15.1558 11.8752 14.8765 11.6005L14.873 11.5975C14.8351 11.5605 14.7957 11.5249 14.755 11.491ZM6.75501 3.708V4.754L5.25501 6.2335V3.708C5.25481 3.68088 5.25996 3.65399 5.27015 3.62886C5.28035 3.60373 5.29539 3.58086 5.31443 3.56154C5.33347 3.54223 5.35612 3.52685 5.3811 3.51629C5.40608 3.50573 5.43289 3.5002 5.46001 3.5H6.55501C6.58196 3.49998 6.60864 3.50541 6.63344 3.51595C6.65824 3.5265 6.68066 3.54195 6.69934 3.56138C6.71802 3.58081 6.73258 3.60381 6.74215 3.62901C6.75171 3.6542 6.75609 3.68107 6.75501 3.708ZM4.75501 14V8.61L9.24651 4.1825L13.75 8.6175V9.5H13.755V11.0275C13.5045 10.9867 13.2487 10.9916 13 11.042V9.358C12.9995 9.26322 12.9616 9.17246 12.8946 9.10544C12.8275 9.03841 12.7368 9.00053 12.642 9H10.858C10.7632 9.00053 10.6725 9.03841 10.6054 9.10544C10.5384 9.17246 10.5005 9.26322 10.5 9.358V11.142C10.5005 11.2368 10.5384 11.3275 10.6054 11.3946C10.6725 11.4616 10.7632 11.4995 10.858 11.5H12.0665C11.8521 11.6835 11.6759 11.9074 11.548 12.159C11.2794 12.2502 11.0412 12.4139 10.8598 12.6319C10.6783 12.8499 10.5605 13.1138 10.5195 13.3945C10.5115 13.4295 10.5072 13.4652 10.5065 13.5015C10.5019 13.5417 10.4997 13.5821 10.5 13.6225V13.6275C10.5003 13.7565 10.5155 13.8807 10.5455 14H10C10 13.7255 9.81901 13.5 9.59851 13.5H9.49901V9.561C9.49901 9.2505 9.27051 9 8.98701 9H7.01201C6.72851 9 6.50001 9.2505 6.50001 9.561V13.5H6.40151C6.18151 13.5 6.00001 13.7255 6.00001 14H4.75501ZM11.07 14C11.1495 14.2045 11.293 14.3765 11.475 14.495H14.16V14.5L14.169 14.495C14.4096 14.3658 14.6117 14.1754 14.755 13.943C14.8217 13.8347 14.875 13.7193 14.915 13.597C15.0116 13.3146 15.0262 13.0107 14.9572 12.7204C14.8881 12.4301 14.7383 12.1652 14.525 11.9565C14.2301 11.6633 13.8309 11.4992 13.415 11.5C12.79 11.5 12.245 11.871 11.985 12.403C11.9592 12.4572 11.9223 12.5052 11.8766 12.5441C11.831 12.583 11.7776 12.6117 11.72 12.6285C11.34 12.749 11.06 13.0905 11.01 13.4965C11.005 13.5065 11.005 13.5165 11.01 13.5265C11 13.5565 11 13.5915 11 13.627C11 13.759 11.025 13.8845 11.07 14ZM8.75001 12C8.81631 12 8.8799 11.9737 8.92679 11.9268C8.97367 11.8799 9.00001 11.8163 9.00001 11.75C9.00001 11.6837 8.97367 11.6201 8.92679 11.5732C8.8799 11.5263 8.81631 11.5 8.75001 11.5C8.68371 11.5 8.62012 11.5263 8.57323 11.5732C8.52635 11.6201 8.50001 11.6837 8.50001 11.75C8.50001 11.8163 8.52635 11.8799 8.57323 11.9268C8.62012 11.9737 8.68371 12 8.75001 12Z" fill="#C4A36C"/>
</g>
<defs>
<clipPath id="clip0_124_3">
<rect width="16" height="16" fill="white"/>
</clipPath>
</defs>
</svg>
