<svg width="16" height="16" viewBox="0 0 16 16" fill="none" xmlns="http://www.w3.org/2000/svg">
<g clip-path="url(#clip0_133_22)">
<path d="M15.7735 8.39844C15.9245 8.73177 16 9.07812 16 9.4375V10C16 10.1979 15.974 10.388 15.9219 10.5703C15.8698 10.7526 15.7917 10.9219 15.6875 11.0781C15.5834 11.2344 15.4584 11.375 15.3125 11.5C15.1667 11.625 15.0052 11.7292 14.8282 11.8125C14.75 11.9948 14.6485 12.1589 14.5235 12.3047C14.3985 12.4505 14.2552 12.5729 14.0938 12.6719C13.9323 12.7708 13.7605 12.8516 13.5782 12.9141C13.3959 12.9766 13.2032 13.0052 13 13C12.6407 13 12.3073 12.9115 12 12.7344C11.6927 12.5573 11.448 12.3125 11.2657 12H5.73442C5.55212 12.3125 5.30733 12.5573 5.00004 12.7344C4.69275 12.9115 4.35942 13 4.00004 13C3.64067 13 3.30733 12.9115 3.00004 12.7344C2.69275 12.5573 2.44796 12.3125 2.26567 12H1.00004C0.859416 12 0.729207 11.974 0.609416 11.9219C0.489624 11.8698 0.385457 11.7995 0.296916 11.7109C0.208374 11.6224 0.135457 11.5156 0.0781657 11.3906C0.020874 11.2656 -0.00516764 11.1354 4.06902e-05 11V9C4.06902e-05 8.58854 0.0781657 8.20052 0.234416 7.83594C0.390666 7.47135 0.604207 7.15365 0.875041 6.88281C1.14587 6.61198 1.46358 6.39583 1.82817 6.23438C2.19275 6.07292 2.58337 5.99479 3.00004 6H3.2891L5.8516 3.4375C5.99223 3.29688 6.15369 3.1901 6.33598 3.11719C6.51827 3.04427 6.71098 3.00521 6.9141 3H14V4H13.7735L15.7735 8.39844ZM4.00004 12C4.14067 12 4.27087 11.974 4.39067 11.9219C4.51046 11.8698 4.61462 11.7995 4.70317 11.7109C4.79171 11.6224 4.86462 11.5156 4.92192 11.3906C4.97921 11.2656 5.00525 11.1354 5.00004 11C5.00004 10.8594 4.974 10.7292 4.92192 10.6094C4.86983 10.4896 4.79952 10.3854 4.71098 10.2969C4.62244 10.2083 4.51567 10.1354 4.39067 10.0781C4.26567 10.0208 4.13546 9.99479 4.00004 10C3.85942 10 3.72921 10.026 3.60942 10.0781C3.48962 10.1302 3.38546 10.2005 3.29692 10.2891C3.20837 10.3776 3.13546 10.4844 3.07817 10.6094C3.02087 10.7344 2.99483 10.8646 3.00004 11C3.00004 11.1406 3.02608 11.2708 3.07817 11.3906C3.13025 11.5104 3.20056 11.6146 3.2891 11.7031C3.37764 11.7917 3.48442 11.8646 3.60942 11.9219C3.73442 11.9792 3.86462 12.0052 4.00004 12ZM9.00004 4H6.9141C6.77869 4 6.6615 4.04948 6.56254 4.14844L4.71098 6H9.00004V4ZM10 6H13.586L12.8125 4.28906C12.7709 4.20052 12.7084 4.13021 12.625 4.07812C12.5417 4.02604 12.4506 4 12.3516 4H10V6ZM13 12C13.1407 12 13.2709 11.974 13.3907 11.9219C13.5105 11.8698 13.6146 11.7995 13.7032 11.7109C13.7917 11.6224 13.8646 11.5156 13.9219 11.3906C13.9792 11.2656 14.0052 11.1354 14 11C14 10.8594 13.974 10.7292 13.9219 10.6094C13.8698 10.4896 13.7995 10.3854 13.711 10.2969C13.6224 10.2083 13.5157 10.1354 13.3907 10.0781C13.2657 10.0208 13.1355 9.99479 13 10C12.8594 10 12.7292 10.026 12.6094 10.0781C12.4896 10.1302 12.3855 10.2005 12.2969 10.2891C12.2084 10.3776 12.1355 10.4844 12.0782 10.6094C12.0209 10.7344 11.9948 10.8646 12 11C12 11.1406 12.0261 11.2708 12.0782 11.3906C12.1302 11.5104 12.2006 11.6146 12.2891 11.7031C12.3776 11.7917 12.4844 11.8646 12.6094 11.9219C12.7344 11.9792 12.8646 12.0052 13 12Z" fill="#C4A36C"/>
</g>
<defs>
<clipPath id="clip0_133_22">
<rect width="16" height="16" fill="white"/>
</clipPath>
</defs>
</svg>
