<svg width="14" height="14" viewBox="0 0 14 14" fill="none" xmlns="http://www.w3.org/2000/svg">
<path fill-rule="evenodd" clip-rule="evenodd" d="M4.5 1.5C4.005 1.5 3.617 1.801 3.377 2.162C3.134 2.526 3 3.001 3 3.5C3 3.999 3.134 4.474 3.377 4.838C3.617 5.198 4.005 5.5 4.5 5.5C4.995 5.5 5.383 5.199 5.623 4.838C5.866 4.474 6 3.999 6 3.5C6 3.001 5.866 2.526 5.623 2.162C5.383 1.802 4.995 1.5 4.5 1.5ZM9.5 1.5C9.005 1.5 8.617 1.801 8.377 2.162C8.134 2.526 8 3.001 8 3.5C8 3.999 8.134 4.474 8.377 4.838C8.617 5.198 9.005 5.5 9.5 5.5C9.995 5.5 10.383 5.199 10.623 4.838C10.866 4.474 11 3.999 11 3.5C11 3.001 10.866 2.526 10.623 2.162C10.383 1.802 9.995 1.5 9.5 1.5ZM1.5 6C1.005 6 0.617 6.301 0.377 6.662C0.134 7.026 0 7.501 0 8C0 8.499 0.134 8.974 0.377 9.338C0.617 9.698 1.005 10 1.5 10C1.995 10 2.383 9.699 2.623 9.338C2.866 8.974 3 8.499 3 8C3 7.501 2.866 7.026 2.623 6.662C2.383 6.302 1.995 6 1.5 6ZM7 6C5.8 6 4.911 6.644 4.343 7.443C3.782 8.23 3.5 9.207 3.5 10C3.5 10.924 4.055 11.566 4.736 11.952C5.406 12.332 6.246 12.5 7 12.5C7.754 12.5 8.594 12.333 9.264 11.952C9.944 11.566 10.5 10.924 10.5 10C10.5 9.207 10.218 8.23 9.657 7.443C9.09 6.643 8.201 6 7 6ZM12.5 6C12.005 6 11.617 6.301 11.377 6.662C11.134 7.026 11 7.501 11 8C11 8.499 11.134 8.974 11.377 9.338C11.617 9.698 12.005 10 12.5 10C12.995 10 13.383 9.699 13.623 9.338C13.866 8.974 14 8.499 14 8C14 7.501 13.866 7.026 13.623 6.662C13.383 6.302 12.995 6 12.5 6Z" fill="#C4A36C"/>
</svg>
