<svg width="24" height="24" viewBox="0 0 24 24" fill="none" xmlns="http://www.w3.org/2000/svg">
<path d="M6.03 12.03L8.03 15.5L5.5 18.68L2 12.62L6.03 12.03ZM17 18V15.29C17.88 14.9 18.5 14.03 18.5 13C18.5 12.43 18.3 11.9 17.97 11.5L19.94 10.35C20.95 9.75998 21.3 8.46998 20.71 7.45998L19.33 5.05998C19.0486 4.57499 18.587 4.22086 18.0456 4.07476C17.5043 3.92865 16.9272 4.00242 16.44 4.27998L8.31 8.99998C7.36 9.52998 7.03 10.75 7.58 11.71L9.08 14.31C9.63 15.26 10.86 15.59 11.81 15.04L13.69 13.96C13.94 14.55 14.41 15.03 15 15.29V18C15 19.1 15.9 20 17 20H22V18H17Z" fill="#C4A36C"/>
</svg>
