<svg width="28" height="28" viewBox="0 0 28 28" fill="none" xmlns="http://www.w3.org/2000/svg">
<g clip-path="url(#clip0_124_13)">
<path d="M26 17V20C26 21.7604 25.3333 23.25 24 24.4688V27.5C24 27.6458 23.9531 27.7656 23.8594 27.8594C23.7656 27.9531 23.6458 28 23.5 28H22.5C22.3542 28 22.2344 27.9531 22.1406 27.8594C22.0469 27.7656 22 27.6458 22 27.5V25.6562C21.3438 25.8854 20.6771 26 20 26H8C7.32292 26 6.65625 25.8854 6 25.6562V27.375C6 27.5521 5.95052 27.7005 5.85156 27.8203C5.7526 27.9401 5.63542 28 5.5 28H4.5C4.36458 28 4.2474 27.9401 4.14844 27.8203C4.04948 27.7005 4 27.5521 4 27.375V24.4688C2.66667 23.25 2 21.7604 2 20V17H26ZM11 10.5C11 10.6458 10.9531 10.7656 10.8594 10.8594C10.7656 10.9531 10.6458 11 10.5 11C10.3542 11 10.2344 10.9531 10.1406 10.8594C10.0469 10.7656 10 10.6458 10 10.5C10 10.3542 10.0469 10.2344 10.1406 10.1406C10.2344 10.0469 10.3542 10 10.5 10C10.6458 10 10.7656 10.0469 10.8594 10.1406C10.9531 10.2344 11 10.3542 11 10.5ZM12 9.5C12 9.64583 11.9531 9.76562 11.8594 9.85938C11.7656 9.95312 11.6458 10 11.5 10C11.3542 10 11.2344 9.95312 11.1406 9.85938C11.0469 9.76562 11 9.64583 11 9.5C11 9.35417 11.0469 9.23438 11.1406 9.14062C11.2344 9.04688 11.3542 9 11.5 9C11.6458 9 11.7656 9.04688 11.8594 9.14062C11.9531 9.23438 12 9.35417 12 9.5ZM11 8.5C11 8.64583 10.9531 8.76562 10.8594 8.85938C10.7656 8.95312 10.6458 9 10.5 9C10.3542 9 10.2344 8.95312 10.1406 8.85938C10.0469 8.76562 10 8.64583 10 8.5C10 8.35417 10.0469 8.23438 10.1406 8.14062C10.2344 8.04688 10.3542 8 10.5 8C10.6458 8 10.7656 8.04688 10.8594 8.14062C10.9531 8.23438 11 8.35417 11 8.5ZM13 8.5C13 8.64583 12.9531 8.76562 12.8594 8.85938C12.7656 8.95312 12.6458 9 12.5 9C12.3542 9 12.2344 8.95312 12.1406 8.85938C12.0469 8.76562 12 8.64583 12 8.5C12 8.35417 12.0469 8.23438 12.1406 8.14062C12.2344 8.04688 12.3542 8 12.5 8C12.6458 8 12.7656 8.04688 12.8594 8.14062C12.9531 8.23438 13 8.35417 13 8.5ZM12 7.5C12 7.64583 11.9531 7.76562 11.8594 7.85938C11.7656 7.95312 11.6458 8 11.5 8C11.3542 8 11.2344 7.95312 11.1406 7.85938C11.0469 7.76562 11 7.64583 11 7.5C11 7.35417 11.0469 7.23438 11.1406 7.14062C11.2344 7.04688 11.3542 7 11.5 7C11.6458 7 11.7656 7.04688 11.8594 7.14062C11.9531 7.23438 12 7.35417 12 7.5ZM11 6.5C11 6.64583 10.9531 6.76562 10.8594 6.85938C10.7656 6.95312 10.6458 7 10.5 7C10.3542 7 10.2344 6.95312 10.1406 6.85938C10.0469 6.76562 10 6.64583 10 6.5C10 6.35417 10.0469 6.23438 10.1406 6.14062C10.2344 6.04688 10.3542 6 10.5 6C10.6458 6 10.7656 6.04688 10.8594 6.14062C10.9531 6.23438 11 6.35417 11 6.5ZM28 14.5V15.5C28 15.6458 27.9531 15.7656 27.8594 15.8594C27.7656 15.9531 27.6458 16 27.5 16H0.5C0.354167 16 0.234375 15.9531 0.140625 15.8594C0.046875 15.7656 0 15.6458 0 15.5V14.5C0 14.3542 0.046875 14.2344 0.140625 14.1406C0.234375 14.0469 0.354167 14 0.5 14H2V4C2 2.89583 2.39062 1.95312 3.17188 1.17188C3.95312 0.390625 4.89583 0 6 0C7.125 0 8.08333 0.40625 8.875 1.21875C9.35417 1.02083 9.86458 0.958333 10.4062 1.03125C10.9479 1.10417 11.4323 1.30729 11.8594 1.64062L12.2031 1.29688C12.3177 1.18229 12.4323 1.18229 12.5469 1.29688L13.2031 1.95312C13.3177 2.06771 13.3177 2.18229 13.2031 2.29688L8.29688 7.20312C8.18229 7.31771 8.06771 7.31771 7.95312 7.20312L7.29688 6.54688C7.18229 6.43229 7.18229 6.31771 7.29688 6.20312L7.64062 5.85938C7.26562 5.38021 7.05469 4.83854 7.00781 4.23438C6.96094 3.63021 7.08333 3.06771 7.375 2.54688C6.98958 2.18229 6.53125 2 6 2C5.44792 2 4.97656 2.19531 4.58594 2.58594C4.19531 2.97656 4 3.44792 4 4V14H27.5C27.6458 14 27.7656 14.0469 27.8594 14.1406C27.9531 14.2344 28 14.3542 28 14.5ZM14 7.5C14 7.64583 13.9531 7.76562 13.8594 7.85938C13.7656 7.95312 13.6458 8 13.5 8C13.3542 8 13.2344 7.95312 13.1406 7.85938C13.0469 7.76562 13 7.64583 13 7.5C13 7.35417 13.0469 7.23438 13.1406 7.14062C13.2344 7.04688 13.3542 7 13.5 7C13.6458 7 13.7656 7.04688 13.8594 7.14062C13.9531 7.23438 14 7.35417 14 7.5ZM13 6.5C13 6.64583 12.9531 6.76562 12.8594 6.85938C12.7656 6.95312 12.6458 7 12.5 7C12.3542 7 12.2344 6.95312 12.1406 6.85938C12.0469 6.76562 12 6.64583 12 6.5C12 6.35417 12.0469 6.23438 12.1406 6.14062C12.2344 6.04688 12.3542 6 12.5 6C12.6458 6 12.7656 6.04688 12.8594 6.14062C12.9531 6.23438 13 6.35417 13 6.5ZM12 5.5C12 5.64583 11.9531 5.76562 11.8594 5.85938C11.7656 5.95312 11.6458 6 11.5 6C11.3542 6 11.2344 5.95312 11.1406 5.85938C11.0469 5.76562 11 5.64583 11 5.5C11 5.35417 11.0469 5.23438 11.1406 5.14062C11.2344 5.04688 11.3542 5 11.5 5C11.6458 5 11.7656 5.04688 11.8594 5.14062C11.9531 5.23438 12 5.35417 12 5.5ZM15 6.5C15 6.64583 14.9531 6.76562 14.8594 6.85938C14.7656 6.95312 14.6458 7 14.5 7C14.3542 7 14.2344 6.95312 14.1406 6.85938C14.0469 6.76562 14 6.64583 14 6.5C14 6.35417 14.0469 6.23438 14.1406 6.14062C14.2344 6.04688 14.3542 6 14.5 6C14.6458 6 14.7656 6.04688 14.8594 6.14062C14.9531 6.23438 15 6.35417 15 6.5ZM14 5.5C14 5.64583 13.9531 5.76562 13.8594 5.85938C13.7656 5.95312 13.6458 6 13.5 6C13.3542 6 13.2344 5.95312 13.1406 5.85938C13.0469 5.76562 13 5.64583 13 5.5C13 5.35417 13.0469 5.23438 13.1406 5.14062C13.2344 5.04688 13.3542 5 13.5 5C13.6458 5 13.7656 5.04688 13.8594 5.14062C13.9531 5.23438 14 5.35417 14 5.5ZM13 4.5C13 4.64583 12.9531 4.76562 12.8594 4.85938C12.7656 4.95312 12.6458 5 12.5 5C12.3542 5 12.2344 4.95312 12.1406 4.85938C12.0469 4.76562 12 4.64583 12 4.5C12 4.35417 12.0469 4.23438 12.1406 4.14062C12.2344 4.04688 12.3542 4 12.5 4C12.6458 4 12.7656 4.04688 12.8594 4.14062C12.9531 4.23438 13 4.35417 13 4.5ZM16 5.5C16 5.64583 15.9531 5.76562 15.8594 5.85938C15.7656 5.95312 15.6458 6 15.5 6C15.3542 6 15.2344 5.95312 15.1406 5.85938C15.0469 5.76562 15 5.64583 15 5.5C15 5.35417 15.0469 5.23438 15.1406 5.14062C15.2344 5.04688 15.3542 5 15.5 5C15.6458 5 15.7656 5.04688 15.8594 5.14062C15.9531 5.23438 16 5.35417 16 5.5ZM15 4.5C15 4.64583 14.9531 4.76562 14.8594 4.85938C14.7656 4.95312 14.6458 5 14.5 5C14.3542 5 14.2344 4.95312 14.1406 4.85938C14.0469 4.76562 14 4.64583 14 4.5C14 4.35417 14.0469 4.23438 14.1406 4.14062C14.2344 4.04688 14.3542 4 14.5 4C14.6458 4 14.7656 4.04688 14.8594 4.14062C14.9531 4.23438 15 4.35417 15 4.5ZM17 4.5C17 4.64583 16.9531 4.76562 16.8594 4.85938C16.7656 4.95312 16.6458 5 16.5 5C16.3542 5 16.2344 4.95312 16.1406 4.85938C16.0469 4.76562 16 4.64583 16 4.5C16 4.35417 16.0469 4.23438 16.1406 4.14062C16.2344 4.04688 16.3542 4 16.5 4C16.6458 4 16.7656 4.04688 16.8594 4.14062C16.9531 4.23438 17 4.35417 17 4.5Z" fill="#C4A36C"/>
</g>
<defs>
<clipPath id="clip0_124_13">
<rect width="28" height="28" fill="white"/>
</clipPath>
</defs>
</svg>
